<svg xmlns="http://www.w3.org/2000/svg"
 xmlns:xlink="http://www.w3.org/1999/xlink"
 width="15px" height="24px"  viewBox="0 0 15 24">
<path fill-rule="evenodd"  fill="#cccccc"
 d="M2.522705,19.859375 C2.522705,19.859375 10.3811035,12.001953 10.3811035,12.001953 C10.3811035,12.001953 2.4190674,4.0390625 2.4190674,4.0390625 C2.4190674,4.0390625 2.420166,4.0390625 2.420166,4.0390625 C2.1604004,3.769043 1.9993896,3.4023438 1.9993896,2.9970703 C1.9993896,2.1694336 2.6706543,1.4975586 3.4990234,1.4975586 C3.904419,1.4975586 4.2703857,1.6572266 4.5410156,1.9189453 C4.5410156,1.9189453 4.5410156,1.9179688 4.5410156,1.9179688 C4.5410156,1.9179688 13.54126,10.91748 13.54126,10.91748 C13.54126,10.91748 13.540039,10.918945 13.540039,10.918945 C13.822632,11.190918 13.999023,11.57373 13.999023,11.998047 C13.999023,11.999512 13.999023,12.000488 13.999023,12.001953 C13.999023,12.00293 13.999023,12.003906 13.999023,12.005371 C13.999023,12.427734 13.822632,12.811035 13.540039,13.083496 C13.540039,13.083496 13.54126,13.083496 13.54126,13.083496 C13.54126,13.083496 4.5410156,22.083984 4.5410156,22.083984 C4.5410156,22.083984 4.5373535,22.081055 4.5373535,22.081055 C4.2679443,22.338867 3.9019775,22.497559 3.4990234,22.497559 C2.6706543,22.497559 1.9993896,21.827148 1.9993896,20.998535 C1.9993896,20.542969 2.2021484,20.135254 2.522705,19.859375 Z"/>
</svg>