<svg xmlns="http://www.w3.org/2000/svg"
 xmlns:xlink="http://www.w3.org/1999/xlink"
 width="15px" height="24px"  viewBox="0 0 15 24">
<path fill-rule="evenodd"  fill="#cccccc"
 d="M12.477173,19.859375 C12.477173,19.859375 4.6188354,12.001953 4.6188354,12.001953 C4.6188354,12.001953 12.580841,4.0390625 12.580841,4.0390625 C12.580841,4.0390625 12.57959,4.0390625 12.57959,4.0390625 C12.839478,3.769043 13.000366,3.4023438 13.000366,2.9970703 C13.000366,2.1694336 12.329285,1.4975586 11.500732,1.4975586 C11.09552,1.4975586 10.729523,1.6572266 10.458862,1.9189453 C10.458862,1.9189453 10.458862,1.9179688 10.458862,1.9179688 C10.458862,1.9179688 1.4585571,10.91748 1.4585571,10.91748 C1.4585571,10.91748 1.4598083,10.918945 1.4598083,10.918945 C1.1772461,11.190918 1.0007935,11.57373 1.0007935,11.998047 C1.0007935,11.999512 1.0007935,12.000488 1.0007935,12.001953 C1.0007935,12.00293 1.0007935,12.003906 1.0007935,12.005371 C1.0007935,12.427734 1.1772461,12.811035 1.4598083,13.083496 C1.4598083,13.083496 1.4585571,13.083496 1.4585571,13.083496 C1.4585571,13.083496 10.458862,22.083984 10.458862,22.083984 C10.458862,22.083984 10.462433,22.081055 10.462433,22.081055 C10.731934,22.338867 11.097809,22.497559 11.500732,22.497559 C12.329285,22.497559 13.000366,21.827148 13.000366,20.998535 C13.000366,20.542969 12.797821,20.135254 12.477173,19.859375 Z"/>
</svg>